<?xml version="1.0" standalone="no"?>
<!DOCTYPE svg PUBLIC "-//W3C//DTD SVG 20010904//EN"
 "http://www.w3.org/TR/2001/REC-SVG-20010904/DTD/svg10.dtd">
<svg version="1.0" xmlns="http://www.w3.org/2000/svg"
 width="751.000000pt" height="298.000000pt" viewBox="0 0 751.000000 298.000000"
 preserveAspectRatio="xMidYMid meet">

<g transform="translate(0.000000,298.000000) scale(0.100000,-0.100000)"
fill="#000000" stroke="none">
<path d="M2964 1900 c-100 -40 -171 -124 -193 -228 -7 -31 -11 -171 -11 -342
l0 -290 45 0 44 0 3 123 3 122 213 3 212 2 0 -125 0 -125 45 0 45 0 0 315 c0
293 -1 318 -21 369 -56 151 -238 234 -385 176z m169 -81 c21 -6 56 -26 77 -45
63 -57 70 -82 70 -253 l0 -151 -212 2 -213 3 0 150 c0 163 5 182 62 239 57 58
134 78 216 55z"/>
<path d="M4190 1475 l0 -435 45 0 44 0 3 123 3 122 70 3 c58 2 78 -1 114 -20
60 -32 81 -74 81 -160 l0 -68 45 0 45 0 0 63 c0 84 -15 131 -56 176 -19 21
-34 42 -34 47 0 5 14 26 30 46 36 43 60 97 60 133 0 23 -4 25 -44 25 -43 0
-44 0 -50 -40 -7 -48 -64 -107 -110 -115 -17 -4 -58 -5 -91 -3 l-60 3 -3 268
-2 267 -45 0 -45 0 0 -435z"/>
<path d="M3720 1639 c-63 -12 -118 -55 -154 -119 l-31 -55 -3 -212 -4 -213 47
0 46 0 -2 198 c-2 165 0 202 14 228 56 107 197 123 271 31 l31 -39 3 -209 3
-209 45 0 46 0 -4 213 -3 212 -30 54 c-56 101 -154 144 -275 120z"/>
<path d="M5670 1640 c-59 -7 -125 -36 -152 -67 -10 -10 -27 -41 -40 -68 -20
-46 -23 -68 -26 -257 l-4 -208 46 0 46 0 0 183 c0 175 1 185 25 233 30 59 75
89 153 100 l52 7 0 43 c0 49 4 48 -100 34z"/>
<path d="M6014 1624 c-54 -19 -118 -75 -151 -131 -36 -62 -44 -184 -18 -264
24 -72 110 -159 179 -182 90 -31 195 -17 266 33 37 26 40 26 40 -10 0 -29 1
-30 50 -30 l50 0 -6 183 c-4 122 -11 198 -21 232 -21 66 -100 145 -167 168
-60 21 -166 21 -222 1z m191 -83 c132 -60 169 -251 69 -361 -43 -48 -88 -64
-165 -58 -46 3 -67 11 -96 34 -51 40 -93 124 -93 183 0 53 35 135 71 168 58
53 143 66 214 34z"/>
<path d="M6704 1621 c-22 -10 -54 -35 -71 -55 -54 -65 -63 -115 -63 -332 l0
-194 40 0 40 0 0 193 c0 180 1 196 23 237 27 55 71 82 133 82 51 0 83 -18 118
-66 19 -25 21 -44 24 -237 l3 -209 45 0 45 0 -3 198 c-2 187 -1 199 20 239 27
51 68 75 130 75 49 0 81 -19 116 -66 19 -25 21 -44 24 -237 l3 -209 46 0 46 0
-6 203 c-5 217 -13 257 -62 322 -74 96 -249 101 -335 10 l-23 -24 -35 31 c-20
17 -50 37 -68 44 -47 20 -141 17 -190 -5z"/>
<path d="M4790 1435 c0 -211 8 -258 57 -322 61 -79 197 -107 298 -59 61 28 87
56 116 121 21 45 23 69 27 253 l4 202 -46 0 -46 0 0 -188 c0 -175 -2 -191 -22
-232 -60 -118 -216 -123 -282 -10 -19 32 -21 55 -24 233 l-4 197 -39 0 -39 0
0 -195z"/>
</g>
</svg>
